<svg width="16" height="16" viewBox="0 0 16 16"  xmlns="http://www.w3.org/2000/svg">
<path d="M0.314801 7.20377C0.113618 7.39278 -0.000488281 7.65654 -0.000488281 7.93259V14.9717C-0.000488281 15.524 0.447228 15.9717 0.999512 15.9717H14.9761C15.5284 15.9717 15.9761 15.524 15.9761 14.9717V7.93259C15.9761 7.65654 15.862 7.39278 15.6608 7.20377L8.67252 0.638372C8.28765 0.276793 7.68797 0.276793 7.3031 0.638372L0.314801 7.20377ZM5.93779 14V6.86H8.89779C10.5978 6.86 11.4478 7.58 11.4478 9.03C11.4478 10.49 10.5878 11.22 8.87779 11.22H7.02779V14H5.93779ZM8.80779 7.79H7.02779V10.29H8.80779C9.34779 10.29 9.73779 10.19 9.98779 9.99C10.2278 9.79 10.3578 9.47 10.3578 9.03C10.3578 8.59 10.2278 8.27 9.97779 8.09C9.72779 7.89 9.33779 7.79 8.80779 7.79Z"/>
</svg>
